# xmcd
#
# Track frame offsets: 
#        150
#        11090
#        24826
#        35780
#        50053
#        60668
#        74545
#        85795
#        103269
#        118237
#        131583
#        144892
#        163114
#        176983
#        195021
#        206210
#        219503
#        237012
#        250617
#        267660
#        283633
#        298962
#        314297
#        330378
#
# Disc length: 4789 seconds
#
# Revision: 0
# Processed by: cddbd v1.5.1PL2 Copyright (c) Steve Scherf et al.
# Submitted via: ExactAudioCopy v0.95b3
#
DISCID=7112b318
DTITLE=Al Green  - The Immortal Soul of Al Green - [CD1]
DYEAR=1900
DGENRE=
TTITLE0=Back Up the Train
TTITLE1=Guilty
TTITLE2=I Want to Hold Your Hand
TTITLE3=One Woman
TTITLE4=Get Back, Baby
TTITLE5=Summertime
TTITLE6=What Am I Going to Do With Myself
TTITLE7=I Can't Get Next To You
TTITLE8=God Is Standing By
TTITLE9=You Say It
TTITLE10=Right Now, Right Now
TTITLE11=Are You Lonely For Me Baby
TTITLE12=Driving Wheel
TTITLE13=Light My Fire
TTITLE14=Ride Sally Ride
TTITLE15=Tired Of Being Alone
TTITLE16=I'm A Ram
TTITLE17=So You're Leaving
TTITLE18=I've Never Found A Girl
TTITLE19=It Ain't No Fun To Me
TTITLE20=Let's Stay Together
TTITLE21=Old Time Lovin'
TTITLE22=La-La For You
TTITLE23=How Can You Mend A Broken Heart
EXTD=
EXTT0=
EXTT1=
EXTT2=
EXTT3=
EXTT4=
EXTT5=
EXTT6=
EXTT7=
EXTT8=
EXTT9=
EXTT10=
EXTT11=
EXTT12=
EXTT13=
EXTT14=
EXTT15=
EXTT16=
EXTT17=
EXTT18=
EXTT19=
EXTT20=
EXTT21=
EXTT22=
EXTT23=
PLAYORDER=
